<svg width="28" height="23" viewBox="0 0 29 23" fill="none" xmlns="http://www.w3.org/2000/svg">
<mask id="path-1-inside-1_121_97" fill="white">
<path d="M13.2203 2.21574L14.4799 3.44501L15.7394 2.21574C18.7643 -0.736443 23.6679 -0.736443 26.6911 2.21574L26.7273 2.251C29.7029 5.1551 29.7702 9.86064 26.8488 12.8176C23.7533 15.9509 19.3998 19.4015 14.5948 22.9627C14.5275 23.0124 14.4322 23.0124 14.3649 22.9627C9.5993 19.3711 5.28529 15.9173 2.2062 12.8433C-0.759584 9.88147 -0.731668 5.14388 2.2686 2.21414C5.2935 -0.738045 10.1971 -0.738045 13.2203 2.21414V2.21574Z"/>
</mask>
<path d="M13.2203 2.21574L14.4799 3.44501L15.7394 2.21574C18.7643 -0.736443 23.6679 -0.736443 26.6911 2.21574L26.7273 2.251C29.7029 5.1551 29.7702 9.86064 26.8488 12.8176C23.7533 15.9509 19.3998 19.4015 14.5948 22.9627C14.5275 23.0124 14.4322 23.0124 14.3649 22.9627C9.5993 19.3711 5.28529 15.9173 2.2062 12.8433C-0.759584 9.88147 -0.731668 5.14388 2.2686 2.21414C5.2935 -0.738045 10.1971 -0.738045 13.2203 2.21414V2.21574Z" stroke="#EC4747" stroke-width="2.4" mask="url(#path-1-inside-1_121_97)"/>
</svg>
