<svg width="16" height="29" viewBox="0 0 16 29" fill="none" xmlns="http://www.w3.org/2000/svg">
<path id="Vector" d="M12.3076 5.67391H15.3845C15.7241 5.67391 15.9998 5.39148 15.9998 5.04348V0.796239C15.9998 0.465891 15.7518 0.191022 15.4306 0.167696C14.4515 0.0964566 12.5389 0 11.1636 0C7.38454 0 4.92303 2.32 4.92303 6.53635V10.7174H0.615378C0.27569 10.7174 0 10.9998 0 11.3478V15.7609C0 16.1089 0.27569 16.3913 0.615378 16.3913H4.92303V28.3696C4.92303 28.7176 5.19872 29 5.53841 29H9.84605C10.1857 29 10.4614 28.7176 10.4614 28.3696V16.3913H14.9057C15.2195 16.3913 15.4829 16.1498 15.5174 15.8302L15.9961 11.4172C16.0368 11.044 15.7512 10.7174 15.3845 10.7174H10.4614V7.56522C10.4614 6.52059 11.2879 5.67391 12.3076 5.67391Z" fill="white"/>
</svg>
