<svg width="29" height="29" viewBox="0 0 29 29" fill="none" xmlns="http://www.w3.org/2000/svg">
<path id="Vector" d="M8.45644 0C3.79383 0 0 3.79606 0 8.45984V20.5424C0 25.2056 3.79606 29 8.45984 29H20.5424C25.2056 29 29 25.2039 29 20.5402V8.45644C29 3.79383 25.2039 0 20.5402 0H8.45644ZM23.2 4.64C23.8403 4.64 24.36 5.15968 24.36 5.8C24.36 6.44032 23.8403 6.96 23.2 6.96C22.5597 6.96 22.04 6.44032 22.04 5.8C22.04 5.15968 22.5597 4.64 23.2 4.64ZM14.5 6.96C18.6586 6.96 22.04 10.3414 22.04 14.5C22.04 18.6586 18.658 22.04 14.5 22.04C10.3414 22.04 6.96 18.658 6.96 14.5C6.96 10.342 10.3414 6.96 14.5 6.96ZM14.5 9.28C11.6168 9.28 9.28 11.6168 9.28 14.5C9.28 17.3832 11.6168 19.72 14.5 19.72C17.3832 19.72 19.72 17.3832 19.72 14.5C19.72 11.6168 17.3832 9.28 14.5 9.28Z" fill="white"/>
</svg>
