<svg width="32" height="29" viewBox="0 0 32 29" fill="none" xmlns="http://www.w3.org/2000/svg">
<path id="Vector" d="M4.17391 0C1.76 0 0.00679348 1.40274 0.00679348 3.33202C0.00679348 5.26804 1.80174 6.73254 4.17391 6.73254C6.58783 6.73254 8.34103 5.30271 8.34103 3.29249C8.22973 1.35647 6.5113 0 4.17391 0ZM0.695652 8.08827C0.313043 8.08827 0 8.39183 0 8.76285V28.3254C0 28.6964 0.313043 29 0.695652 29H7.65217C8.03478 29 8.34783 28.6964 8.34783 28.3254V8.76285C8.34783 8.39183 8.03478 8.08827 7.65217 8.08827H0.695652ZM11.1304 8.08827C10.7478 8.08827 10.4348 8.39183 10.4348 8.76285V28.3254C10.4348 28.6964 10.7478 29 11.1304 29H17.3913C17.7753 29 18.087 28.6978 18.087 28.3254V18.2069V18.0382V17.8696C18.087 16.2708 19.3535 14.9686 20.9674 14.8472C21.0509 14.8337 21.1339 14.834 21.2174 14.834C21.3009 14.834 21.3839 14.8337 21.4674 14.8472C23.0813 14.9686 24.3478 16.2708 24.3478 17.8696V28.3254C24.3478 28.6978 24.6595 29 25.0435 29H31.3043C31.687 29 32 28.6964 32 28.3254V16.8577C32 12.4932 29.5854 8.08827 24.2011 8.08827C21.7524 8.08827 19.9026 9.00585 18.7826 9.76812V8.76285C18.7826 8.39183 18.4696 8.08827 18.087 8.08827H11.1304Z" fill="white"/>
</svg>
