<svg width="82" height="45" viewBox="0 0 82 45" fill="none" xmlns="http://www.w3.org/2000/svg">
<g id="logoFooter">
<g id="Group">
<path id="Vector" d="M7.80386 38.063C4.49313 38.063 1.81302 37.1203 0 36.2169L1.69478 31.4249C3.2319 32.3676 5.79378 33.2317 8.11917 33.2317C10.7205 33.2317 12.6911 32.2105 12.6911 29.8931C12.6911 27.8506 10.7205 26.9865 9.10451 26.3187L7.05501 25.4546C3.35014 23.8835 0.433548 21.8802 0.433548 17.3239C0.433548 12.532 4.37489 8.91833 10.484 8.91833C12.967 8.91833 15.8048 9.3504 18.0908 10.4895L16.2778 15.1636C14.6618 14.2209 12.6517 13.6318 10.484 13.6318C7.25207 13.6318 6.42439 15.4778 6.42439 16.6955C6.42439 18.6201 8.35565 19.445 9.93219 20.152L11.9817 21.0554C15.5683 22.6265 18.7214 24.5905 18.7214 29.0289C18.7214 35.6277 13.5188 38.063 7.80386 38.063Z" fill="white"/>
<path id="Vector_2" d="M30.3088 27.6543H27.471V37.3954H21.3225V9.66693H29.8752C36.2996 9.66693 41.8175 11.3952 41.8175 18.2689C41.8175 26.321 35.0778 27.6565 30.3088 27.6565V27.6543ZM30.2299 14.4174H27.471V22.9409H30.3088C32.5948 22.9409 35.5902 22.2339 35.5902 18.6595C35.5902 14.8888 32.2794 14.4174 30.2299 14.4174Z" fill="white"/>
<path id="Vector_3" d="M57.6595 37.3952C57.3836 35.1956 56.9895 32.9174 56.4377 30.6786H45.7961C45.2837 32.9174 44.8501 35.1956 44.5348 37.3952H38.3469C39.884 28.0862 42.5642 17.7559 47.7273 9.62747H55.0188C60.2214 18.1116 62.8227 27.892 64.4386 37.3952H57.6595ZM51.1563 14.2994H51.0775C49.2644 17.9131 47.8061 21.8802 46.7026 26.083H55.5312C54.4276 21.9587 53.0087 17.9523 51.1563 14.2994Z" fill="white"/>
</g>
<path id="Vector_4" d="M72.2711 5.04728L70.8128 5.65828L70.1997 4.20497C68.7283 0.711365 64.6928 -0.929605 61.1872 0.536793L61.1456 0.55425C57.6969 1.99883 56.0196 5.92886 57.4057 9.39192C58.8727 13.0623 61.2682 17.4178 63.9943 22.0221C64.0337 22.0876 64.1103 22.1182 64.1848 22.0985C69.3436 20.6758 74.082 19.2203 77.673 17.6688C81.1326 16.174 82.742 12.1829 81.2815 8.71764C79.81 5.22403 75.7745 3.58306 72.2689 5.04946L72.2711 5.04728Z" fill="#EC4747"/>
<g id="Group_2">
<path id="Vector_5" d="M65.6606 16.5843L66.1905 16.3617L66.4139 16.8898C66.9481 18.1576 68.413 18.7533 69.6852 18.2209L69.7005 18.2143C70.9552 17.6884 71.5617 16.2613 71.0559 15.0022C70.7012 14.1163 70.1976 13.119 69.6085 12.0585C69.0546 11.0613 67.8722 10.5834 66.7773 10.9151C65.5884 11.2751 64.5111 11.6439 63.6308 12.0302C62.4134 12.5626 61.8485 13.9657 62.363 15.1877C62.3718 15.2095 62.3806 15.2292 62.3893 15.251C62.9236 16.5188 64.3885 17.1145 65.6606 16.5821V16.5843Z" fill="white"/>
<path id="Vector_6" d="M65.0061 9.10616C65.0127 10.2321 64.4893 11.1596 63.7799 11.1814C63.0704 11.2032 62.4683 10.3063 62.4355 9.18036C62.4026 8.05437 62.9632 7.22952 63.6616 7.10514C64.382 6.97858 64.9973 7.71832 65.0061 9.10616Z" fill="white"/>
<path id="Vector_7" d="M69.2781 8.69813C68.9036 9.76083 68.0978 10.4591 67.4212 10.2387C66.7468 10.0205 66.4819 8.97308 66.8322 7.90383C67.1826 6.8324 67.9884 6.24323 68.689 6.36324C69.4094 6.48544 69.7401 7.38885 69.2781 8.69813Z" fill="white"/>
<path id="Vector_8" d="M72.5668 12.6522C71.634 13.2872 71.1655 14.2451 71.553 14.8387C71.9406 15.4322 73.0223 15.4148 73.9682 14.8016C74.9141 14.1884 75.2776 13.2588 74.982 12.6151C74.6776 11.9539 73.7142 11.8688 72.5668 12.6522Z" fill="white"/>
<path id="Vector_9" d="M70.71 9.11684C69.9721 9.97006 69.7662 11.0131 70.2917 11.4888C70.8194 11.9624 71.8595 11.6699 72.6171 10.8364C73.3748 10.0006 73.4864 9.00992 73.0354 8.46438C72.569 7.90139 71.6187 8.06723 70.71 9.11684Z" fill="white"/>
</g>
<g id="Group_3">
<path id="Vector_10" d="M2.08463 43.2522H1.61166V44.8757H0.586914V40.2539H2.01237C3.0831 40.2539 4.00275 40.542 4.00275 41.6876C4.00275 43.0296 2.87946 43.2522 2.08463 43.2522ZM2.07149 41.046H1.61166V42.4666H2.08463C2.46562 42.4666 2.96486 42.3488 2.96486 41.753C2.96486 41.1246 2.41307 41.046 2.07149 41.046Z" fill="white"/>
<path id="Vector_11" d="M6.13115 42.2768C6.06546 42.244 5.93408 42.1851 5.80927 42.1851C5.61221 42.1851 5.5071 42.244 5.42171 42.3226C5.2969 42.4339 5.29033 42.5779 5.29033 42.7677V44.8757H4.37068V42.1982C4.37068 42.0738 4.35754 41.9691 4.24587 41.9691C4.20646 41.9691 4.1342 41.9887 4.09479 42.0018L4.04224 41.4061C4.18018 41.3734 4.4101 41.321 4.62687 41.321C5.04071 41.321 5.16552 41.5894 5.16552 41.9036C5.37572 41.5697 5.60564 41.2948 6.03918 41.2948C6.17056 41.2948 6.30194 41.3341 6.3742 41.3603L6.13115 42.2768Z" fill="white"/>
<path id="Vector_12" d="M7.72077 45.0001C6.57121 45.0001 6.05884 44.1163 6.05884 43.1213C6.05884 42.1262 6.6172 41.2556 7.75362 41.2556C8.89004 41.2556 9.41555 42.1393 9.41555 43.1344C9.41555 44.1294 8.85719 45.0001 7.72077 45.0001ZM7.75362 41.9757C7.16898 41.9757 7.0179 42.6238 7.0179 43.1147C7.0179 43.6057 7.13614 44.28 7.72077 44.28C8.3054 44.28 8.45649 43.6319 8.45649 43.1409C8.45649 42.6499 8.33825 41.9757 7.75362 41.9757Z" fill="white"/>
<path id="Vector_13" d="M10.9002 44.987C10.2762 44.987 9.88859 44.6532 9.88859 43.9789V42.1001H9.30396V41.4454H9.88859V40.7384L10.8082 40.4438V41.4454H11.6096V42.1001H10.8082V43.8676C10.8082 44.2146 10.9987 44.2931 11.2089 44.2931C11.3994 44.2931 11.5308 44.2473 11.6096 44.2211L11.7016 44.8954C11.5308 44.9412 11.2089 44.987 10.9002 44.987Z" fill="white"/>
<path id="Vector_14" d="M12.5686 43.3503C12.5686 43.383 12.5752 43.3961 12.5752 43.4289C12.6277 43.9722 13.0613 44.2603 13.6131 44.2603C13.9284 44.2603 14.2634 44.1293 14.4473 44.0311L14.6904 44.712C14.421 44.8364 13.9546 44.9869 13.4423 44.9869C12.3453 44.9869 11.6555 44.2406 11.6555 43.1539C11.6555 42.2309 12.1679 41.2686 13.2846 41.2686C14.3225 41.2686 14.756 41.969 14.7495 42.8593C14.1386 43.1539 13.3569 43.3438 12.5686 43.3503ZM13.2518 41.9101C12.7591 41.9101 12.5489 42.2963 12.5489 42.7219C13.0481 42.7088 13.4948 42.6498 13.8889 42.4469C13.8692 42.1785 13.659 41.9101 13.2518 41.9101Z" fill="white"/>
<path id="Vector_15" d="M16.5954 44.9869C15.5181 44.9869 14.9006 44.1948 14.9006 43.1736C14.9006 42.2178 15.4064 41.2686 16.5954 41.2686C17.0684 41.2686 17.4362 41.3929 17.6661 41.5173L17.3377 42.2832C17.2195 42.2047 16.9567 42.0476 16.6545 42.0476C16.1225 42.0476 15.8597 42.5386 15.8597 43.1539C15.8597 43.8282 16.2932 44.2275 16.7071 44.2275C16.9698 44.2275 17.2392 44.1162 17.3968 44.018L17.6596 44.6989C17.4756 44.8364 17.0224 44.9869 16.5954 44.9869Z" fill="white"/>
<path id="Vector_16" d="M19.1441 44.987C18.52 44.987 18.1325 44.6532 18.1325 43.9789V42.1001H17.5479V41.4454H18.1325V40.7384L19.0521 40.4438V41.4454H19.8535V42.1001H19.0521V43.8676C19.0521 44.2146 19.2426 44.2931 19.4528 44.2931C19.6433 44.2931 19.7747 44.2473 19.8535 44.2211L19.9455 44.8954C19.7747 44.9412 19.4528 44.987 19.1441 44.987Z" fill="white"/>
<path id="Vector_17" d="M22.0738 42.2768C22.0081 42.244 21.8767 42.1851 21.7519 42.1851C21.5548 42.1851 21.4497 42.244 21.3643 42.3226C21.2395 42.4339 21.233 42.5779 21.233 42.7677V44.8757H20.3133V42.1982C20.3133 42.0738 20.3002 41.9691 20.1885 41.9691C20.1491 41.9691 20.0768 41.9887 20.0374 42.0018L19.9849 41.4061C20.1228 41.3734 20.3527 41.321 20.5695 41.321C20.9833 41.321 21.1081 41.5894 21.1081 41.9036C21.3184 41.5697 21.5483 41.2948 21.9818 41.2948C22.1132 41.2948 22.2446 41.3341 22.3168 41.3603L22.0738 42.2768Z" fill="white"/>
<path id="Vector_18" d="M22.9867 40.9346C22.6714 40.9346 22.4678 40.7317 22.4678 40.4502C22.4678 40.1687 22.6714 39.9658 22.9867 39.9658C23.302 39.9658 23.4991 40.1687 23.4991 40.4502C23.4991 40.7317 23.302 40.9346 22.9867 40.9346ZM23.2166 44.941C22.7896 44.941 22.5203 44.725 22.5203 44.306V41.3798H23.44V44.0638C23.44 44.1882 23.4531 44.2929 23.5648 44.2929C23.6042 44.2929 23.6765 44.2733 23.7159 44.2602L23.7684 44.8559C23.6502 44.8887 23.4334 44.941 23.2166 44.941Z" fill="white"/>
<path id="Vector_19" d="M25.5554 44.9869C24.4781 44.9869 23.8606 44.1948 23.8606 43.1736C23.8606 42.2178 24.3664 41.2686 25.5554 41.2686C26.0283 41.2686 26.3962 41.3929 26.6261 41.5173L26.2977 42.2832C26.1794 42.2047 25.9167 42.0476 25.6145 42.0476C25.0824 42.0476 24.8197 42.5386 24.8197 43.1539C24.8197 43.8282 25.2532 44.2275 25.667 44.2275C25.9298 44.2275 26.1991 44.1162 26.3568 44.018L26.6195 44.6989C26.4356 44.8364 25.9824 44.9869 25.5554 44.9869Z" fill="white"/>
<path id="Vector_20" d="M27.5129 43.3503C27.5129 43.383 27.5195 43.3961 27.5195 43.4289C27.5721 43.9722 28.0056 44.2603 28.5574 44.2603C28.8727 44.2603 29.2077 44.1293 29.3916 44.0311L29.6347 44.712C29.3654 44.8364 28.899 44.9869 28.3866 44.9869C27.2896 44.9869 26.5999 44.2406 26.5999 43.1539C26.5999 42.2309 27.1122 41.2686 28.2289 41.2686C29.2668 41.2686 29.7004 41.969 29.6938 42.8593C29.0829 43.1539 28.3012 43.3438 27.5129 43.3503ZM28.1961 41.9101C27.7034 41.9101 27.4932 42.2963 27.4932 42.7219C27.9925 42.7088 28.4391 42.6498 28.8333 42.4469C28.8136 42.1785 28.6034 41.9101 28.1961 41.9101Z" fill="white"/>
<path id="Vector_21" d="M34.2066 44.9411C33.7993 44.9411 33.6088 44.7578 33.6088 44.3715C33.3658 44.7316 33.1096 44.9869 32.6301 44.9869C31.6447 44.9869 31.2834 43.9067 31.2834 43.0884C31.2834 42.2701 31.6973 41.2685 32.8206 41.2685C33.0899 41.2685 33.3658 41.3536 33.5366 41.5173V40.0312H34.4628V44.0638C34.4628 44.1882 34.4759 44.293 34.5876 44.293C34.627 44.293 34.6993 44.2733 34.7387 44.2602L34.7912 44.856C34.6533 44.8887 34.4234 44.9411 34.2066 44.9411ZM33.5432 42.3814C33.5432 42.1196 33.3921 41.9297 32.9454 41.9297C32.3805 41.9297 32.2425 42.4731 32.2425 42.9706C32.2425 43.4419 32.3476 44.1948 32.9585 44.1948C33.1424 44.1948 33.287 44.1031 33.3789 44.018C33.5234 43.874 33.5432 43.7496 33.5432 43.5663V42.3814Z" fill="white"/>
<path id="Vector_22" d="M35.8159 43.3503C35.8159 43.383 35.8225 43.3961 35.8225 43.4289C35.875 43.9722 36.3086 44.2603 36.8604 44.2603C37.1757 44.2603 37.5107 44.1293 37.6946 44.0311L37.9377 44.712C37.6683 44.8364 37.202 44.9869 36.6896 44.9869C35.5926 44.9869 34.9028 44.2406 34.9028 43.1539C34.9028 42.2309 35.4152 41.2686 36.5319 41.2686C37.5698 41.2686 38.0034 41.969 37.9968 42.8593C37.3859 43.1539 36.6042 43.3438 35.8159 43.3503ZM36.4991 41.9101C36.0064 41.9101 35.7962 42.2963 35.7962 42.7219C36.2954 42.7088 36.7421 42.6498 37.1363 42.4469C37.1166 42.1785 36.9064 41.9101 36.4991 41.9101Z" fill="white"/>
<path id="Vector_23" d="M39.1925 44.9869C38.7523 44.9869 38.3582 44.8364 38.1611 44.7185L38.4436 44.0442C38.6669 44.2014 38.9888 44.3061 39.2647 44.3061C39.5078 44.3061 39.8034 44.221 39.8034 43.946C39.8034 43.7169 39.6129 43.6449 39.2844 43.5205L38.9954 43.4092C38.5421 43.2325 38.24 42.9641 38.24 42.4535C38.24 41.7923 38.7983 41.2686 39.6194 41.2686C40.0595 41.2686 40.3814 41.406 40.5654 41.4977L40.2829 42.172C40.0793 42.041 39.7968 41.9625 39.5734 41.9625C39.199 41.9625 39.0873 42.1523 39.0873 42.3094C39.0873 42.4927 39.2581 42.5975 39.5012 42.6826L39.8099 42.7939C40.3092 42.9772 40.6639 43.2456 40.6639 43.8282C40.6639 44.509 40.1121 44.9869 39.1925 44.9869Z" fill="white"/>
<path id="Vector_24" d="M44.7694 44.9411C44.441 44.9411 44.2768 44.7382 44.2242 44.4632C43.9352 44.8036 43.6659 44.9738 43.1863 44.9738C42.5688 44.9738 42.1484 44.5287 42.1484 43.9329C42.1484 42.9837 43.1469 42.8004 43.922 42.8004C44.0666 42.8004 44.152 42.7939 44.152 42.676V42.4469C44.152 42.1981 43.9943 41.9625 43.5082 41.9625C43.1009 41.9625 42.7922 42.1523 42.6411 42.2832L42.3192 41.6286C42.7068 41.3798 43.1338 41.2686 43.7381 41.2686C44.2308 41.2686 45.0256 41.4453 45.0256 42.4535V44.0639C45.0256 44.1883 45.0388 44.293 45.1504 44.293C45.1898 44.293 45.2621 44.2734 45.3015 44.2603L45.3541 44.856C45.2161 44.8887 44.9862 44.9411 44.7694 44.9411ZM44.1454 43.37C44.0469 43.3634 43.9483 43.3634 43.8695 43.3634C43.5476 43.3634 43.0615 43.442 43.0615 43.8609C43.0615 44.1162 43.2454 44.2995 43.5016 44.2995C43.7053 44.2995 43.8761 44.2341 43.9943 44.1097C44.0994 43.9984 44.1454 43.8675 44.1454 43.6973V43.37Z" fill="white"/>
<path id="Vector_25" d="M47.6663 44.8756V42.6629C47.6663 42.3094 47.5415 42.0672 47.1408 42.0672C46.9569 42.0672 46.7927 42.1458 46.6941 42.2374C46.5168 42.4076 46.5036 42.4927 46.5036 42.7284V44.8756H45.584V41.3798H46.4379V41.8774C46.6876 41.5042 47.016 41.2686 47.4955 41.2686C48.2772 41.2686 48.586 41.7923 48.586 42.4731V44.8756H47.6663Z" fill="white"/>
<path id="Vector_26" d="M49.6632 40.9346C49.3479 40.9346 49.1443 40.7317 49.1443 40.4502C49.1443 40.1687 49.3479 39.9658 49.6632 39.9658C49.9785 39.9658 50.1756 40.1687 50.1756 40.4502C50.1756 40.7317 49.9785 40.9346 49.6632 40.9346ZM49.8931 44.941C49.4662 44.941 49.1968 44.725 49.1968 44.306V41.3798H50.1165V44.0638C50.1165 44.1882 50.1296 44.2929 50.2413 44.2929C50.2807 44.2929 50.353 44.2733 50.3924 44.2602L50.4449 44.8559C50.3267 44.8887 50.1099 44.941 49.8931 44.941Z" fill="white"/>
<path id="Vector_27" d="M54.7146 44.8756V42.6629C54.7146 42.3094 54.5898 42.0672 54.2416 42.0672C54.0708 42.0672 53.9329 42.1392 53.8475 42.2309C53.6898 42.4011 53.6701 42.5058 53.6701 42.7284V44.8756H52.7505V42.6629C52.7505 42.3094 52.6257 42.0672 52.2775 42.0672C52.1067 42.0672 51.9622 42.1392 51.8768 42.2309C51.7192 42.4011 51.706 42.4927 51.706 42.7284V44.8756H50.7864V41.3798H51.6403V41.8446C51.8768 41.4911 52.1461 41.2686 52.6125 41.2686C53.0789 41.2686 53.3877 41.4846 53.5585 41.897C53.8015 41.5304 54.1037 41.2686 54.5766 41.2686C55.3321 41.2686 55.6342 41.7923 55.6342 42.4731V44.8756H54.7146Z" fill="white"/>
<path id="Vector_28" d="M58.505 44.9411C58.1766 44.9411 58.0124 44.7382 57.9598 44.4632C57.6708 44.8036 57.4014 44.9738 56.9219 44.9738C56.3044 44.9738 55.884 44.5287 55.884 43.9329C55.884 42.9837 56.8825 42.8004 57.6576 42.8004C57.8022 42.8004 57.8875 42.7939 57.8875 42.676V42.4469C57.8875 42.1981 57.7299 41.9625 57.2438 41.9625C56.8365 41.9625 56.5278 42.1523 56.3767 42.2832L56.0548 41.6286C56.4424 41.3798 56.8694 41.2686 57.4737 41.2686C57.9664 41.2686 58.7612 41.4453 58.7612 42.4535V44.0639C58.7612 44.1883 58.7744 44.293 58.886 44.293C58.9254 44.293 58.9977 44.2734 59.0371 44.2603L59.0897 44.856C58.9517 44.8887 58.7218 44.9411 58.505 44.9411ZM57.881 43.37C57.7824 43.3634 57.6839 43.3634 57.6051 43.3634C57.2832 43.3634 56.7971 43.442 56.7971 43.8609C56.7971 44.1162 56.981 44.2995 57.2372 44.2995C57.4409 44.2995 57.6117 44.2341 57.7299 44.1097C57.835 43.9984 57.881 43.8675 57.881 43.6973V43.37Z" fill="white"/>
<path id="Vector_29" d="M61.9339 44.9413C61.5201 44.9413 61.3624 44.7449 61.3361 44.4437C61.0997 44.7776 60.8041 44.9871 60.3639 44.9871C59.6085 44.9871 59.2932 44.4634 59.2932 43.7825V41.38H60.2129V43.5927C60.2129 43.9462 60.3508 44.195 60.699 44.195C60.8697 44.195 61.0143 44.123 61.0997 44.0313C61.2573 43.8611 61.2705 43.7694 61.2705 43.5338V41.38H62.1901V44.064C62.1901 44.1884 62.2032 44.2932 62.3149 44.2932C62.3543 44.2932 62.4266 44.2735 62.466 44.2604L62.5185 44.8562C62.3806 44.8889 62.1507 44.9413 61.9339 44.9413Z" fill="white"/>
<path id="Vector_30" d="M65.9409 42.113C65.8226 42.0345 65.7044 42.0148 65.5664 42.0148C64.9555 42.0148 64.7979 42.6368 64.7979 43.1277C64.7979 43.6187 64.9621 44.2668 65.5664 44.2668C65.711 44.2668 65.862 44.2406 65.9803 44.1555L66.1248 44.8429C65.9343 44.9411 65.7241 44.9869 65.5139 44.9869C65.0015 44.9869 64.4891 44.6989 64.2592 44.0966C64.0425 44.6334 63.6549 44.9869 63.1557 44.9869C62.9192 44.9869 62.755 44.9476 62.5645 44.8625L62.7615 44.1424C62.8798 44.221 62.9914 44.2406 63.1359 44.2406C63.7469 44.2406 63.9045 43.6122 63.9045 43.1212C63.9045 42.6302 63.7403 41.9887 63.1359 41.9887C62.9914 41.9887 62.8403 42.0148 62.7221 42.0999L62.5776 41.4126C62.7681 41.3144 62.9783 41.2686 63.1885 41.2686C63.7009 41.2686 64.2132 41.5566 64.4432 42.1589C64.6599 41.6221 65.0475 41.2686 65.5467 41.2686C65.7832 41.2686 65.9474 41.3078 66.1379 41.3929L65.9409 42.113Z" fill="white"/>
</g>
</g>
</svg>
