<svg width="82" height="45" viewBox="0 0 82 45" fill="none" xmlns="http://www.w3.org/2000/svg">
<g id="logoVersion2">
<g id="Group">
<path id="Vector" d="M7.80386 38.063C4.49313 38.063 1.81302 37.1203 0 36.2169L1.69478 31.4249C3.2319 32.3676 5.79378 33.2317 8.11917 33.2317C10.7205 33.2317 12.6911 32.2105 12.6911 29.8931C12.6911 27.8506 10.7205 26.9865 9.10451 26.3187L7.05501 25.4546C3.35014 23.8835 0.433548 21.8802 0.433548 17.3239C0.433548 12.532 4.37489 8.91833 10.484 8.91833C12.967 8.91833 15.8048 9.3504 18.0908 10.4895L16.2778 15.1636C14.6618 14.2209 12.6517 13.6318 10.484 13.6318C7.25207 13.6318 6.42439 15.4778 6.42439 16.6955C6.42439 18.6201 8.35565 19.445 9.93219 20.152L11.9817 21.0554C15.5683 22.6265 18.7214 24.5905 18.7214 29.0289C18.7214 35.6277 13.5188 38.063 7.80386 38.063Z" fill="#3B3A40"/>
<path id="Vector_2" d="M30.3089 27.6543H27.4711V37.3954H21.3226V9.66693H29.8754C36.2997 9.66693 41.8176 11.3952 41.8176 18.2689C41.8176 26.321 35.0779 27.6565 30.3089 27.6565V27.6543ZM30.2301 14.4174H27.4711V22.9409H30.3089C32.5949 22.9409 35.5903 22.2339 35.5903 18.6595C35.5903 14.8888 32.2796 14.4174 30.2301 14.4174Z" fill="#3B3A40"/>
<path id="Vector_3" d="M57.6596 37.3952C57.3837 35.1956 56.9895 32.9174 56.4378 30.6786H45.7961C45.2837 32.9174 44.8502 35.1956 44.5349 37.3952H38.347C39.8841 28.0862 42.5642 17.7559 47.7274 9.62747H55.0189C60.2214 18.1116 62.8227 27.892 64.4387 37.3952H57.6596ZM51.1564 14.2994H51.0775C49.2645 17.9131 47.8062 21.8802 46.7026 26.083H55.5312C54.4277 21.9587 53.0088 17.9523 51.1564 14.2994Z" fill="#3B3A40"/>
</g>
<path id="Vector_4" d="M72.2711 5.04728L70.8128 5.65828L70.1997 4.20497C68.7283 0.711365 64.6928 -0.929605 61.1872 0.536793L61.1456 0.55425C57.6969 1.99883 56.0196 5.92886 57.4057 9.39192C58.8727 13.0623 61.2682 17.4178 63.9943 22.0221C64.0337 22.0876 64.1103 22.1182 64.1848 22.0985C69.3436 20.6758 74.082 19.2203 77.673 17.6688C81.1326 16.174 82.742 12.1829 81.2815 8.71764C79.81 5.22403 75.7745 3.58306 72.2689 5.04946L72.2711 5.04728Z" fill="#EC4747"/>
<g id="Group_2">
<path id="Vector_5" d="M65.6606 16.5842L66.1905 16.3617L66.4138 16.8897C66.9481 18.1576 68.4129 18.7533 69.6851 18.2209L69.7005 18.2143C70.9551 17.6884 71.5616 16.2613 71.0558 15.0022C70.7011 14.1162 70.1975 13.119 69.6085 12.0585C69.0545 11.0613 67.8721 10.5834 66.7773 10.915C65.5883 11.2751 64.511 11.6439 63.6308 12.0301C62.4133 12.5626 61.8484 13.9657 62.363 15.1877C62.3717 15.2095 62.3805 15.2291 62.3893 15.251C62.9235 16.5188 64.3884 17.1145 65.6606 16.5821V16.5842Z" fill="white"/>
<path id="Vector_6" d="M65.006 9.10613C65.0125 10.2321 64.4892 11.1595 63.7798 11.1813C63.0703 11.2032 62.4682 10.3063 62.4353 9.18033C62.4025 8.05434 62.963 7.22949 63.6615 7.10511C64.3819 6.97855 64.9972 7.71829 65.006 9.10613Z" fill="white"/>
<path id="Vector_7" d="M69.2779 8.6981C68.9034 9.7608 68.0977 10.4591 67.4211 10.2387C66.7466 10.0205 66.4817 8.97305 66.832 7.9038C67.1824 6.83237 67.9882 6.2432 68.6889 6.36321C69.4092 6.48541 69.7399 7.38882 69.2779 8.6981Z" fill="white"/>
<path id="Vector_8" d="M72.5667 12.6521C71.6339 13.2872 71.1653 14.2451 71.5529 14.8387C71.9405 15.4322 73.0222 15.4147 73.9681 14.8016C74.914 14.1884 75.2775 13.2588 74.9819 12.6151C74.6775 11.9539 73.7141 11.8688 72.5667 12.6521Z" fill="white"/>
<path id="Vector_9" d="M70.71 9.11681C69.9721 9.97003 69.7662 11.0131 70.2917 11.4888C70.8194 11.9623 71.8595 11.6699 72.6171 10.8363C73.3748 10.0006 73.4864 9.00989 73.0354 8.46435C72.569 7.90136 71.6187 8.0672 70.71 9.11681Z" fill="white"/>
</g>
<g id="Group_3">
<path id="Vector_10" d="M2.0845 43.2521H1.61154V44.8756H0.586792V40.2538H2.01224C3.08298 40.2538 4.00262 40.5419 4.00262 41.6875C4.00262 43.0295 2.87934 43.2521 2.0845 43.2521ZM2.07136 41.046H1.61154V42.4665H2.0845C2.4655 42.4665 2.96474 42.3487 2.96474 41.753C2.96474 41.1245 2.41295 41.046 2.07136 41.046Z" fill="#3B3A40"/>
<path id="Vector_11" d="M6.13097 42.2767C6.06528 42.244 5.9339 42.1851 5.80909 42.1851C5.61202 42.1851 5.50692 42.244 5.42152 42.3225C5.29671 42.4338 5.29015 42.5778 5.29015 42.7677V44.8756H4.3705V42.1981C4.3705 42.0738 4.35736 41.969 4.24569 41.969C4.20628 41.969 4.13402 41.9887 4.0946 42.0018L4.04205 41.406C4.18 41.3733 4.40991 41.3209 4.62669 41.3209C5.04053 41.3209 5.16534 41.5893 5.16534 41.9036C5.37554 41.5697 5.60545 41.2947 6.039 41.2947C6.17038 41.2947 6.30176 41.334 6.37402 41.3602L6.13097 42.2767Z" fill="#3B3A40"/>
<path id="Vector_12" d="M7.72059 45C6.57103 45 6.05865 44.1163 6.05865 43.1212C6.05865 42.1262 6.61701 41.2555 7.75343 41.2555C8.88985 41.2555 9.41537 42.1393 9.41537 43.1343C9.41537 44.1294 8.85701 45 7.72059 45ZM7.75343 41.9756C7.1688 41.9756 7.01772 42.6237 7.01772 43.1147C7.01772 43.6057 7.13596 44.2799 7.72059 44.2799C8.30522 44.2799 8.45631 43.6318 8.45631 43.1409C8.45631 42.6499 8.33807 41.9756 7.75343 41.9756Z" fill="#3B3A40"/>
<path id="Vector_13" d="M10.9 44.987C10.2759 44.987 9.88834 44.6531 9.88834 43.9789V42.1H9.30371V41.4454H9.88834V40.7384L10.808 40.4438V41.4454H11.6094V42.1H10.808V43.8676C10.808 44.2145 10.9985 44.2931 11.2087 44.2931C11.3992 44.2931 11.5306 44.2473 11.6094 44.2211L11.7014 44.8953C11.5306 44.9412 11.2087 44.987 10.9 44.987Z" fill="#3B3A40"/>
<path id="Vector_14" d="M12.5684 43.3503C12.5684 43.383 12.575 43.3961 12.575 43.4288C12.6275 43.9722 13.0611 44.2602 13.6129 44.2602C13.9282 44.2602 14.2632 44.1293 14.4471 44.0311L14.6902 44.7119C14.4208 44.8363 13.9545 44.9869 13.4421 44.9869C12.3451 44.9869 11.6553 44.2406 11.6553 43.1539C11.6553 42.2308 12.1677 41.2685 13.2844 41.2685C14.3223 41.2685 14.7559 41.969 14.7493 42.8593C14.1384 43.1539 13.3567 43.3437 12.5684 43.3503ZM13.2516 41.91C12.7589 41.91 12.5487 42.2963 12.5487 42.7218C13.0479 42.7087 13.4946 42.6498 13.8888 42.4468C13.8691 42.1784 13.6589 41.91 13.2516 41.91Z" fill="#3B3A40"/>
<path id="Vector_15" d="M16.5952 44.9869C15.5179 44.9869 14.9005 44.1947 14.9005 43.1735C14.9005 42.2177 15.4063 41.2685 16.5952 41.2685C17.0682 41.2685 17.436 41.3929 17.666 41.5173L17.3375 42.2832C17.2193 42.2046 16.9565 42.0475 16.6543 42.0475C16.1223 42.0475 15.8595 42.5385 15.8595 43.1539C15.8595 43.8281 16.2931 44.2275 16.7069 44.2275C16.9697 44.2275 17.239 44.1162 17.3966 44.018L17.6594 44.6988C17.4755 44.8363 17.0222 44.9869 16.5952 44.9869Z" fill="#3B3A40"/>
<path id="Vector_16" d="M19.1439 44.987C18.5199 44.987 18.1323 44.6531 18.1323 43.9789V42.1H17.5477V41.4454H18.1323V40.7384L19.0519 40.4438V41.4454H19.8534V42.1H19.0519V43.8676C19.0519 44.2145 19.2424 44.2931 19.4527 44.2931C19.6431 44.2931 19.7745 44.2473 19.8534 44.2211L19.9453 44.8953C19.7745 44.9412 19.4527 44.987 19.1439 44.987Z" fill="#3B3A40"/>
<path id="Vector_17" d="M22.0737 42.2767C22.008 42.244 21.8766 42.1851 21.7518 42.1851C21.5547 42.1851 21.4496 42.244 21.3642 42.3225C21.2394 42.4338 21.2328 42.5778 21.2328 42.7677V44.8756H20.3132V42.1981C20.3132 42.0738 20.3 41.969 20.1884 41.969C20.149 41.969 20.0767 41.9887 20.0373 42.0018L19.9847 41.406C20.1227 41.3733 20.3526 41.3209 20.5694 41.3209C20.9832 41.3209 21.108 41.5893 21.108 41.9036C21.3182 41.5697 21.5481 41.2947 21.9817 41.2947C22.1131 41.2947 22.2444 41.334 22.3167 41.3602L22.0737 42.2767Z" fill="#3B3A40"/>
<path id="Vector_18" d="M22.9867 40.9346C22.6714 40.9346 22.4678 40.7316 22.4678 40.4501C22.4678 40.1686 22.6714 39.9657 22.9867 39.9657C23.302 39.9657 23.4991 40.1686 23.4991 40.4501C23.4991 40.7316 23.302 40.9346 22.9867 40.9346ZM23.2166 44.941C22.7896 44.941 22.5203 44.7249 22.5203 44.306V41.3797H23.44V44.0638C23.44 44.1881 23.4531 44.2929 23.5648 44.2929C23.6042 44.2929 23.6765 44.2732 23.7159 44.2601L23.7684 44.8559C23.6502 44.8886 23.4334 44.941 23.2166 44.941Z" fill="#3B3A40"/>
<path id="Vector_19" d="M25.5552 44.9869C24.4779 44.9869 23.8604 44.1947 23.8604 43.1735C23.8604 42.2177 24.3662 41.2685 25.5552 41.2685C26.0282 41.2685 26.396 41.3929 26.6259 41.5173L26.2975 42.2832C26.1792 42.2046 25.9165 42.0475 25.6143 42.0475C25.0822 42.0475 24.8195 42.5385 24.8195 43.1539C24.8195 43.8281 25.253 44.2275 25.6669 44.2275C25.9296 44.2275 26.1989 44.1162 26.3566 44.018L26.6194 44.6988C26.4354 44.8363 25.9822 44.9869 25.5552 44.9869Z" fill="#3B3A40"/>
<path id="Vector_20" d="M27.5127 43.3503C27.5127 43.383 27.5193 43.3961 27.5193 43.4288C27.5719 43.9722 28.0054 44.2602 28.5572 44.2602C28.8725 44.2602 29.2075 44.1293 29.3915 44.0311L29.6345 44.7119C29.3652 44.8363 28.8988 44.9869 28.3864 44.9869C27.2894 44.9869 26.5997 44.2406 26.5997 43.1539C26.5997 42.2308 27.112 41.2685 28.2288 41.2685C29.2666 41.2685 29.7002 41.969 29.6936 42.8593C29.0827 43.1539 28.301 43.3437 27.5127 43.3503ZM28.1959 41.91C27.7032 41.91 27.493 42.2963 27.493 42.7218C27.9923 42.7087 28.439 42.6498 28.8331 42.4468C28.8134 42.1784 28.6032 41.91 28.1959 41.91Z" fill="#3B3A40"/>
<path id="Vector_21" d="M34.2064 44.941C33.7991 44.941 33.6086 44.7577 33.6086 44.3715C33.3655 44.7315 33.1094 44.9868 32.6298 44.9868C31.6445 44.9868 31.2832 43.9067 31.2832 43.0884C31.2832 42.2701 31.697 41.2685 32.8203 41.2685C33.0897 41.2685 33.3655 41.3536 33.5363 41.5172V40.0312H34.4626V44.0638C34.4626 44.1882 34.4757 44.2929 34.5874 44.2929C34.6268 44.2929 34.699 44.2733 34.7384 44.2602L34.791 44.8559C34.6531 44.8886 34.4231 44.941 34.2064 44.941ZM33.5429 42.3814C33.5429 42.1195 33.3918 41.9297 32.9451 41.9297C32.3802 41.9297 32.2423 42.473 32.2423 42.9705C32.2423 43.4419 32.3474 44.1947 32.9583 44.1947C33.1422 44.1947 33.2867 44.1031 33.3787 44.018C33.5232 43.8739 33.5429 43.7496 33.5429 43.5663V42.3814Z" fill="#3B3A40"/>
<path id="Vector_22" d="M35.8159 43.3503C35.8159 43.383 35.8224 43.3961 35.8224 43.4288C35.875 43.9722 36.3085 44.2602 36.8603 44.2602C37.1756 44.2602 37.5106 44.1293 37.6946 44.0311L37.9376 44.7119C37.6683 44.8363 37.2019 44.9869 36.6895 44.9869C35.5925 44.9869 34.9028 44.2406 34.9028 43.1539C34.9028 42.2308 35.4151 41.2685 36.5319 41.2685C37.5697 41.2685 38.0033 41.969 37.9967 42.8593C37.3858 43.1539 36.6041 43.3437 35.8159 43.3503ZM36.499 41.91C36.0063 41.91 35.7961 42.2963 35.7961 42.7218C36.2954 42.7087 36.7421 42.6498 37.1362 42.4468C37.1165 42.1784 36.9063 41.91 36.499 41.91Z" fill="#3B3A40"/>
<path id="Vector_23" d="M39.1922 44.9869C38.7521 44.9869 38.358 44.8363 38.1609 44.7185L38.4434 44.0442C38.6667 44.2013 38.9886 44.306 39.2645 44.306C39.5075 44.306 39.8031 44.2209 39.8031 43.946C39.8031 43.7169 39.6126 43.6448 39.2842 43.5205L38.9951 43.4092C38.5419 43.2324 38.2397 42.964 38.2397 42.4534C38.2397 41.7922 38.7981 41.2685 39.6192 41.2685C40.0593 41.2685 40.3812 41.406 40.5651 41.4976L40.2826 42.1719C40.079 42.041 39.7965 41.9624 39.5732 41.9624C39.1988 41.9624 39.0871 42.1523 39.0871 42.3094C39.0871 42.4927 39.2579 42.5974 39.5009 42.6825L39.8097 42.7938C40.3089 42.9771 40.6636 43.2455 40.6636 43.8281C40.6636 44.509 40.1119 44.9869 39.1922 44.9869Z" fill="#3B3A40"/>
<path id="Vector_24" d="M44.7692 44.941C44.4408 44.941 44.2766 44.7381 44.224 44.4631C43.935 44.8036 43.6657 44.9738 43.1861 44.9738C42.5687 44.9738 42.1483 44.5286 42.1483 43.9329C42.1483 42.9837 43.1467 42.8004 43.9219 42.8004C44.0664 42.8004 44.1518 42.7938 44.1518 42.676V42.4468C44.1518 42.1981 43.9941 41.9624 43.508 41.9624C43.1007 41.9624 42.792 42.1523 42.6409 42.2832L42.319 41.6285C42.7066 41.3798 43.1336 41.2685 43.7379 41.2685C44.2306 41.2685 45.0254 41.4452 45.0254 42.4534V44.0638C45.0254 44.1882 45.0386 44.2929 45.1502 44.2929C45.1897 44.2929 45.2619 44.2733 45.3013 44.2602L45.3539 44.8559C45.2159 44.8887 44.986 44.941 44.7692 44.941ZM44.1452 43.3699C44.0467 43.3633 43.9481 43.3633 43.8693 43.3633C43.5474 43.3633 43.0613 43.4419 43.0613 43.8609C43.0613 44.1162 43.2453 44.2995 43.5014 44.2995C43.7051 44.2995 43.8759 44.234 43.9941 44.1096C44.0992 43.9983 44.1452 43.8674 44.1452 43.6972V43.3699Z" fill="#3B3A40"/>
<path id="Vector_25" d="M47.6661 44.8756V42.6629C47.6661 42.3094 47.5413 42.0672 47.1406 42.0672C46.9567 42.0672 46.7925 42.1457 46.6939 42.2374C46.5166 42.4076 46.5035 42.4927 46.5035 42.7283V44.8756H45.5838V41.3798H46.4378V41.8773C46.6874 41.5042 47.0158 41.2685 47.4954 41.2685C48.2771 41.2685 48.5858 41.7922 48.5858 42.473V44.8756H47.6661Z" fill="#3B3A40"/>
<path id="Vector_26" d="M49.663 40.9346C49.3477 40.9346 49.1441 40.7316 49.1441 40.4501C49.1441 40.1686 49.3477 39.9657 49.663 39.9657C49.9784 39.9657 50.1754 40.1686 50.1754 40.4501C50.1754 40.7316 49.9784 40.9346 49.663 40.9346ZM49.893 44.941C49.466 44.941 49.1967 44.7249 49.1967 44.306V41.3797H50.1163V44.0638C50.1163 44.1881 50.1294 44.2929 50.2411 44.2929C50.2805 44.2929 50.3528 44.2732 50.3922 44.2601L50.4447 44.8559C50.3265 44.8886 50.1097 44.941 49.893 44.941Z" fill="#3B3A40"/>
<path id="Vector_27" d="M54.7145 44.8756V42.6629C54.7145 42.3094 54.5897 42.0672 54.2416 42.0672C54.0708 42.0672 53.9328 42.1392 53.8474 42.2308C53.6898 42.401 53.6701 42.5058 53.6701 42.7283V44.8756H52.7504V42.6629C52.7504 42.3094 52.6256 42.0672 52.2775 42.0672C52.1067 42.0672 51.9621 42.1392 51.8768 42.2308C51.7191 42.401 51.706 42.4927 51.706 42.7283V44.8756H50.7863V41.3798H51.6403V41.8446C51.8768 41.4911 52.1461 41.2685 52.6125 41.2685C53.0789 41.2685 53.3876 41.4845 53.5584 41.8969C53.8014 41.5303 54.1036 41.2685 54.5766 41.2685C55.332 41.2685 55.6342 41.7922 55.6342 42.473V44.8756H54.7145Z" fill="#3B3A40"/>
<path id="Vector_28" d="M58.5048 44.941C58.1763 44.941 58.0121 44.7381 57.9596 44.4631C57.6705 44.8036 57.4012 44.9738 56.9217 44.9738C56.3042 44.9738 55.8838 44.5286 55.8838 43.9329C55.8838 42.9837 56.8823 42.8004 57.6574 42.8004C57.8019 42.8004 57.8873 42.7938 57.8873 42.676V42.4468C57.8873 42.1981 57.7297 41.9624 57.2436 41.9624C56.8363 41.9624 56.5275 42.1523 56.3765 42.2832L56.0546 41.6285C56.4421 41.3798 56.8691 41.2685 57.4735 41.2685C57.9661 41.2685 58.761 41.4452 58.761 42.4534V44.0638C58.761 44.1882 58.7741 44.2929 58.8858 44.2929C58.9252 44.2929 58.9974 44.2733 59.0369 44.2602L59.0894 44.8559C58.9515 44.8887 58.7216 44.941 58.5048 44.941ZM57.8807 43.3699C57.7822 43.3633 57.6837 43.3633 57.6048 43.3633C57.283 43.3633 56.7969 43.4419 56.7969 43.8609C56.7969 44.1162 56.9808 44.2995 57.237 44.2995C57.4406 44.2995 57.6114 44.234 57.7297 44.1096C57.8348 43.9983 57.8807 43.8674 57.8807 43.6972V43.3699Z" fill="#3B3A40"/>
<path id="Vector_29" d="M61.9338 44.9412C61.5199 44.9412 61.3623 44.7448 61.336 44.4437C61.0995 44.7775 60.8039 44.987 60.3638 44.987C59.6084 44.987 59.2931 44.4633 59.2931 43.7825V41.3799H60.2127V43.5926C60.2127 43.9461 60.3507 44.1949 60.6988 44.1949C60.8696 44.1949 61.0141 44.1229 61.0995 44.0312C61.2572 43.861 61.2703 43.7694 61.2703 43.5337V41.3799H62.19V44.064C62.19 44.1884 62.2031 44.2931 62.3148 44.2931C62.3542 44.2931 62.4265 44.2735 62.4659 44.2604L62.5184 44.8561C62.3805 44.8888 62.1506 44.9412 61.9338 44.9412Z" fill="#3B3A40"/>
<path id="Vector_30" d="M65.9408 42.113C65.8226 42.0344 65.7043 42.0148 65.5664 42.0148C64.9555 42.0148 64.7978 42.6367 64.7978 43.1277C64.7978 43.6187 64.962 44.2668 65.5664 44.2668C65.7109 44.2668 65.862 44.2406 65.9802 44.1555L66.1247 44.8428C65.9342 44.941 65.724 44.9869 65.5138 44.9869C65.0015 44.9869 64.4891 44.6988 64.2592 44.0965C64.0424 44.6334 63.6548 44.9869 63.1556 44.9869C62.9191 44.9869 62.7549 44.9476 62.5644 44.8625L62.7615 44.1424C62.8797 44.2209 62.9914 44.2406 63.1359 44.2406C63.7468 44.2406 63.9044 43.6121 63.9044 43.1211C63.9044 42.6301 63.7402 41.9886 63.1359 41.9886C62.9914 41.9886 62.8403 42.0148 62.722 42.0999L62.5775 41.4125C62.768 41.3143 62.9782 41.2685 63.1884 41.2685C63.7008 41.2685 64.2132 41.5565 64.4431 42.1588C64.6599 41.622 65.0474 41.2685 65.5467 41.2685C65.7832 41.2685 65.9474 41.3078 66.1379 41.3929L65.9408 42.113Z" fill="#3B3A40"/>
</g>
</g>
</svg>
