<svg width="16" height="16" viewBox="0 0 16 16" fill="none" xmlns="http://www.w3.org/2000/svg">
<g id="maximize-2">
<path id="Vector (Stroke)" fill-rule="evenodd" clip-rule="evenodd" d="M9.33331 2C9.33331 1.63181 9.63179 1.33333 9.99998 1.33333H14C14.3682 1.33333 14.6666 1.63181 14.6666 2V6C14.6666 6.36819 14.3682 6.66667 14 6.66667C13.6318 6.66667 13.3333 6.36819 13.3333 6V2.66667H9.99998C9.63179 2.66667 9.33331 2.36819 9.33331 2Z" fill="#3B3A40"/>
<path id="Vector (Stroke)_2" fill-rule="evenodd" clip-rule="evenodd" d="M1.99998 9.33333C2.36817 9.33333 2.66665 9.63181 2.66665 10V13.3333H5.99998C6.36817 13.3333 6.66665 13.6318 6.66665 14C6.66665 14.3682 6.36817 14.6667 5.99998 14.6667H1.99998C1.63179 14.6667 1.33331 14.3682 1.33331 14V10C1.33331 9.63181 1.63179 9.33333 1.99998 9.33333Z" fill="#3B3A40"/>
<path id="Vector (Stroke)_3" fill-rule="evenodd" clip-rule="evenodd" d="M14.4714 1.5286C14.7318 1.78895 14.7318 2.21106 14.4714 2.47141L9.80476 7.13807C9.54441 7.39842 9.1223 7.39842 8.86195 7.13807C8.6016 6.87772 8.6016 6.45561 8.86195 6.19526L13.5286 1.5286C13.789 1.26825 14.2111 1.26825 14.4714 1.5286Z" fill="#3B3A40"/>
<path id="Vector (Stroke)_4" fill-rule="evenodd" clip-rule="evenodd" d="M7.13805 8.86193C7.3984 9.12228 7.3984 9.54439 7.13805 9.80474L2.47138 14.4714C2.21103 14.7318 1.78892 14.7318 1.52858 14.4714C1.26823 14.2111 1.26823 13.7889 1.52858 13.5286L6.19524 8.86193C6.45559 8.60158 6.8777 8.60158 7.13805 8.86193Z" fill="#3B3A40"/>
</g>
</svg>
