<svg width="32" height="32" viewBox="0 0 32 32" fill="none" xmlns="http://www.w3.org/2000/svg">
<g id="minimize-2">
<path id="Vector (Stroke)" fill-rule="evenodd" clip-rule="evenodd" d="M3.9282 18.3316C3.9282 17.6085 4.51444 17.0222 5.2376 17.0222H13.094C13.8172 17.0222 14.4034 17.6085 14.4034 18.3316V26.188C14.4034 26.9112 13.8172 27.4974 13.094 27.4974C12.3709 27.4974 11.7846 26.9112 11.7846 26.188V19.641H5.2376C4.51444 19.641 3.9282 19.0548 3.9282 18.3316Z" fill="#3B3A40"/>
<path id="Vector (Stroke)_2" fill-rule="evenodd" clip-rule="evenodd" d="M18.3316 3.92822C19.0548 3.92822 19.641 4.51446 19.641 5.23762V11.7846H26.188C26.9112 11.7846 27.4974 12.3709 27.4974 13.094C27.4974 13.8172 26.9112 14.4034 26.188 14.4034H18.3316C17.6085 14.4034 17.0222 13.8172 17.0222 13.094V5.23762C17.0222 4.51446 17.6085 3.92822 18.3316 3.92822Z" fill="#3B3A40"/>
<path id="Vector (Stroke)_3" fill-rule="evenodd" clip-rule="evenodd" d="M28.4233 3.00229C28.9347 3.51364 28.9347 4.34271 28.4233 4.85406L19.2575 14.0199C18.7462 14.5312 17.9171 14.5312 17.4057 14.0199C16.8944 13.5085 16.8944 12.6794 17.4057 12.1681L26.5715 3.00229C27.0829 2.49094 27.912 2.49094 28.4233 3.00229Z" fill="#3B3A40"/>
<path id="Vector (Stroke)_4" fill-rule="evenodd" clip-rule="evenodd" d="M14.0199 17.4057C14.5313 17.9171 14.5313 18.7462 14.0199 19.2575L4.85409 28.4233C4.34274 28.9347 3.51367 28.9347 3.00232 28.4233C2.49096 27.912 2.49096 27.0829 3.00232 26.5715L12.1681 17.4057C12.6795 16.8944 13.5085 16.8944 14.0199 17.4057Z" fill="#3B3A40"/>
</g>
</svg>
