<svg width="28" height="23" viewBox="0 0 28 23" fill="none" xmlns="http://www.w3.org/2000/svg">
<mask id="path-1-inside-1_121_104" fill="white">
<path d="M12.0754 21.2937L12.8859 20.4832L13.6964 21.2937C15.6467 23.2441 18.807 23.2441 20.7544 21.2937L20.7777 21.2704C22.699 19.3492 22.7369 16.2414 20.8506 14.2852C19.5241 12.9091 17.8362 11.4398 15.9441 9.91799C14.1628 8.48364 11.6148 8.4953 9.84226 9.93548C7.91521 11.501 6.20389 12.9995 4.86866 14.3814C3.02325 16.288 3.04074 19.32 4.91531 21.1946C4.94738 21.2266 4.97945 21.2587 5.01152 21.2908C6.96189 23.2412 10.1221 23.2412 12.0696 21.2908L12.0754 21.2937Z"/>
</mask>
<path d="M12.0754 21.2937L12.8859 20.4832L13.6964 21.2937C15.6467 23.2441 18.807 23.2441 20.7544 21.2937L20.7777 21.2704C22.699 19.3492 22.7369 16.2414 20.8506 14.2852C19.5241 12.9091 17.8362 11.4398 15.9441 9.91799C14.1628 8.48364 11.6148 8.4953 9.84226 9.93548C7.91521 11.501 6.20389 12.9995 4.86866 14.3814C3.02325 16.288 3.04074 19.32 4.91531 21.1946C4.94738 21.2266 4.97945 21.2587 5.01152 21.2908C6.96189 23.2412 10.1221 23.2412 12.0696 21.2908L12.0754 21.2937Z" stroke="#3B3A40" stroke-width="2.4" mask="url(#path-1-inside-1_121_104)"/>
<mask id="path-2-inside-2_121_104" fill="white">
<path d="M5.19808 7.91509C6.06103 9.99957 5.79865 12.1161 4.50132 12.6904C3.20398 13.2648 1.41396 12.0549 0.498536 9.99374C-0.416885 7.93259 -0.00582013 5.97347 1.1953 5.21839C2.43141 4.43999 4.13107 5.34667 5.19808 7.91509Z"/>
</mask>
<path d="M5.19808 7.91509C6.06103 9.99957 5.79865 12.1161 4.50132 12.6904C3.20398 13.2648 1.41396 12.0549 0.498536 9.99374C-0.416885 7.93259 -0.00582013 5.97347 1.1953 5.21839C2.43141 4.43999 4.13107 5.34667 5.19808 7.91509Z" stroke="#3B3A40" stroke-width="2.4" mask="url(#path-2-inside-2_121_104)"/>
<mask id="path-3-inside-3_121_104" fill="white">
<path d="M12.7867 3.93275C12.8975 6.18632 11.9384 8.09296 10.5215 8.195C9.10757 8.29703 7.82773 6.55657 7.66156 4.30592C7.4983 2.05526 8.54199 0.3527 9.92679 0.0436723C11.3524 -0.274101 12.6468 1.15442 12.7867 3.93275Z"/>
</mask>
<path d="M12.7867 3.93275C12.8975 6.18632 11.9384 8.09296 10.5215 8.195C9.10757 8.29703 7.82773 6.55657 7.66156 4.30592C7.4983 2.05526 8.54199 0.3527 9.92679 0.0436723C11.3524 -0.274101 12.6468 1.15442 12.7867 3.93275Z" stroke="#3B3A40" stroke-width="2.4" mask="url(#path-3-inside-3_121_104)"/>
<mask id="path-4-inside-4_121_104" fill="white">
<path d="M21.8652 8.78099C20.6232 10.6643 20.4833 12.7954 21.6494 13.603C22.8156 14.4105 24.8009 13.5622 26.0866 11.708C27.3723 9.85383 27.3402 7.85682 26.3023 6.88601C25.2353 5.88896 23.3928 6.45745 21.8652 8.78099Z"/>
</mask>
<path d="M21.8652 8.78099C20.6232 10.6643 20.4833 12.7954 21.6494 13.603C22.8156 14.4105 24.8009 13.5622 26.0866 11.708C27.3723 9.85383 27.3402 7.85682 26.3023 6.88601C25.2353 5.88896 23.3928 6.45745 21.8652 8.78099Z" stroke="#3B3A40" stroke-width="2.4" mask="url(#path-4-inside-4_121_104)"/>
<mask id="path-5-inside-5_121_104" fill="white">
<path d="M15.7517 3.62663C15.0345 5.7665 15.4426 7.85973 16.7779 8.34368C18.1131 8.82763 19.8157 7.49822 20.5824 5.37585C21.3491 3.25347 20.8069 1.33225 19.5562 0.658808C18.2705 -0.0321309 16.635 0.991156 15.7517 3.62663Z"/>
</mask>
<path d="M15.7517 3.62663C15.0345 5.7665 15.4426 7.85973 16.7779 8.34368C18.1131 8.82763 19.8157 7.49822 20.5824 5.37585C21.3491 3.25347 20.8069 1.33225 19.5562 0.658808C18.2705 -0.0321309 16.635 0.991156 15.7517 3.62663Z" stroke="#3B3A40" stroke-width="2.4" mask="url(#path-5-inside-5_121_104)"/>
</svg>
