<svg width="35" height="35" viewBox="0 0 35 35" fill="none" xmlns="http://www.w3.org/2000/svg">
<g id="search">
<path id="Vector (Stroke)" fill-rule="evenodd" clip-rule="evenodd" d="M16.0417 5.83332C10.4038 5.83332 5.83335 10.4037 5.83335 16.0417C5.83335 21.6796 10.4038 26.25 16.0417 26.25C21.6796 26.25 26.25 21.6796 26.25 16.0417C26.25 10.4037 21.6796 5.83332 16.0417 5.83332ZM2.91669 16.0417C2.91669 8.79292 8.79295 2.91666 16.0417 2.91666C23.2904 2.91666 29.1667 8.79292 29.1667 16.0417C29.1667 23.2904 23.2904 29.1667 16.0417 29.1667C8.79295 29.1667 2.91669 23.2904 2.91669 16.0417Z" fill="#6C6F74"/>
<path id="Vector (Stroke)_2" fill-rule="evenodd" clip-rule="evenodd" d="M23.2501 23.25C23.8196 22.6805 24.743 22.6805 25.3125 23.25L31.6562 29.5938C32.2257 30.1633 32.2257 31.0867 31.6562 31.6562C31.0867 32.2257 30.1633 32.2257 29.5938 31.6562L23.2501 25.3124C22.6806 24.7429 22.6806 23.8196 23.2501 23.25Z" fill="#6C6F74"/>
</g>
</svg>
